<?xml version="1.0" encoding="utf-8"?>
<!-- Generator: Adobe Illustrator 22.0.0, SVG Export Plug-In . SVG Version: 6.00 Build 0)  -->
<svg version="1.1" id="Capa_1" xmlns="http://www.w3.org/2000/svg" xmlns:xlink="http://www.w3.org/1999/xlink" x="0px" y="0px"
	 viewBox="0 0 512 512" style="enable-background:new 0 0 512 512;" xml:space="preserve">
<style type="text/css">
	.st0{fill:#8E44AD;}
</style>
<g>
	<path class="st0" d="M293.3,244.5c0.9,0.5,1.9,0.7,3.1,0.7c1.3,0,2.3-0.3,3.2-0.8c0.8-0.6,1.3-1.1,1.3-1.7c0-0.6-0.4-1.1-1.3-1.6
		s-1.9-0.7-3.1-0.7c-1.2,0-2.2,0.2-3.1,0.7c-0.8,0.5-1.3,1-1.3,1.6C292,243.4,292.5,244,293.3,244.5z"/>
	<path class="st0" d="M205.1,309.4c-0.7-0.6-1.7-0.8-2.9-0.8c-1.3,0-2.2,0.3-2.8,0.8c-0.6,0.5-1,1.1-1,1.8c0,1.7,1.3,2.5,3.8,2.5
		s3.8-0.8,3.8-2.5C206,310.4,205.7,309.8,205.1,309.4z"/>
	<path class="st0" d="M323.2,172.7c-0.8-0.4-1.7-0.7-2.7-0.7c-1.1,0-2,0.2-2.7,0.6c-0.8,0.4-1.1,0.9-1.1,1.4c0,0.6,0.4,1.1,1.2,1.5
		c0.8,0.4,1.7,0.7,2.7,0.7c1.1,0,2-0.2,2.8-0.7c0.7-0.5,1.1-1,1.1-1.5C324.3,173.6,323.9,173.2,323.2,172.7z"/>
	<path class="st0" d="M198.1,246.7c0-5-1.4-7.5-4.1-7.5c-2.8,0-4.1,2.6-4.1,7.7c0,4.9,1.4,7.4,4.2,7.4
		C196.8,254.2,198.1,251.7,198.1,246.7z"/>
	<path class="st0" d="M502.1,124.6l-57.4-63.3c-11.3-12.5-27.4-19.5-44.2-19.3c-16.1,0.2-31.3,7-42.3,18.8
		c-13-4.6-27.8-6.8-36.9-5.9c-18.5,1.9-57.8,21.1-55.9,39.6c1.9,18.5,44.2,29.4,62.8,27.5c3.3-0.3,7.3-1.2,11.5-2.6l-15.4,15.9
		c-5.5-1.5-11.4-2.2-17.6-1.7c-7.5,0.6-14.4,2.8-20.5,6.1c-11-14.9-29.9-24.1-50.9-22.6c-11.2,0.8-21.4,4.7-29.7,10.5
		c-10.6-26.1-33.8-43.5-59.4-41.6c-31.7,2.4-55.5,33.6-54.7,70.7c-21.1,6-37.2,21.8-42.9,41.3l-28.9,8.2
		C5.3,210.6-3.1,225.7,1,240.1c3.4,11.9,14.3,19.7,26.1,19.7c2.5,0,5-0.3,7.5-1.1l8.1-2.3c-6.6,10-10.1,22.4-9.1,35.7
		c2.2,29.7,26,52.2,53.5,51.1l-10.9,19c-2.9,5-3.6,11-2.1,16.6l21,75.2c2.7,9.6,11.4,16,20.9,16c1.9,0,3.9-0.3,5.8-0.8
		c11.6-3.2,18.3-15.2,15.1-26.8L118.5,376l12.4-21.8c10.4,9.8,26.2,15.4,43.5,14.1c9-0.7,17.2-3.3,24.4-7.1
		c10.5,9.5,24.9,15.1,40.6,13.9c14.9-1.1,27.7-8,36.6-18c0.5,0.5,1,1,1.4,1.5v89.7c0,12,9.6,21.7,21.6,21.7c12,0,21.6-9.7,21.6-21.7
		v-74.1c29.3-2.4,51.3-26.8,49.1-54.8c-0.3-3.4-0.9-6.8-1.8-10c19.5-5.5,33.1-22.7,31.7-42c-0.9-12.1-7.7-22.3-17.5-29.1
		c2-5.1,2.9-10.6,2.5-16.3c-0.1-1.5-0.3-3-0.6-4.5l20.3-45.4l32.7,20.9c12.7,8.1,29,8,41.5-0.3l16.2-10.7c9.3-6.1,15.5-16,16.9-27.1
		C513.1,144,509.6,132.9,502.1,124.6z M216,166.5c1.3-2.8,3.5-4.6,6.6-5.4c2-0.6,5.7-0.8,11.1-0.8c5.6,0,9.7,0.5,12.3,1.5
		c2.9,1.2,4.4,3.2,4.4,6c0,2.1-1.3,3.5-3.9,4.2c-1.4,0.4-3.9,0.6-7.2,0.6c-2.6,0-3.9,0.2-3.9,0.7c0,0.4,0.8,0.9,2.4,1.4
		c2.2,0.7,3.7,1.2,4.5,1.7c1.6,1,2.4,2.3,2.4,3.9c0,1.7-0.9,3-2.7,3.8c-0.8,0.4-2.4,0.8-4.9,1.4c-1.8,0.4-2.7,0.8-2.7,1.4
		c0,0.7,1.3,1,4,1.1c3.9,0,6.4,0.2,7.6,0.4c2.7,0.6,4,1.8,4,3.7c0,3.1-1.1,5.3-3.4,6.6c-2.3,1.3-5.9,2-10.9,2
		c-6.5,0-11-0.4-13.5-1.1c-3.2-0.9-5.5-2.7-6.7-5.4c-1.2-2.7-1.8-7.3-1.8-13.6C213.8,174.2,214.5,169.5,216,166.5z M165.3,165.7
		c2.2-3.7,4.8-5.6,7.8-5.6c2.7,0,5.1,1.3,7.2,4c1.9,2.5,2.8,5.2,2.8,8.1c0.9,0.1,1.4,0.1,1.5,0.1c0.1,0,0.6,0,1.4-0.1
		c0-2.9,1-5.7,2.9-8.1c2-2.6,4.4-4,7.1-4c2.9,0,5.4,1.9,7.6,5.6c2.2,3.9,3.4,8.8,3.4,14.6c0,6.3-0.9,11.2-2.6,14.9
		c-1.9,4-4.7,6-8.3,6c-3,0-5.6-1.8-7.7-5.4c-1.6-2.7-2.4-4.8-2.4-6.4c-0.7-0.1-1.2-0.1-1.4-0.1c-0.1,0-0.5,0-1.3,0.1
		c0,1.6-0.8,3.7-2.4,6.4c-2.1,3.6-4.7,5.4-7.7,5.4c-3.7,0-6.5-2-8.6-6c-1.9-3.8-2.9-8.7-2.9-14.9
		C161.6,174.6,162.9,169.7,165.3,165.7z M116.1,190.9c0-1.2,0.4-2.2,1.2-2.9c0.6-0.7,1.6-1.1,3-1.1c1,0,2.7,0.3,5.1,1
		c0.9,0.3,2,0.4,3.2,0.4c1.8,0,2.7-0.4,2.7-1.2c0-1.1-0.5-1.8-1.5-2.2c-0.6-0.2-1.7-0.4-3.5-0.5c-1.8-0.1-3.1-0.3-4-0.6
		c-2.2-0.8-4.1-2.1-5.6-4c-1.5-1.9-2.2-4.1-2.2-6.5c0-3.9,1.9-7.2,5.6-9.8c3.6-2.6,7.7-3.9,12.3-3.9c6.2,0,11,1.2,14.5,3.5
		c2.9,1.9,4.4,4.1,4.4,6.7c0,1.2-0.4,2.1-1.1,2.9c-0.7,0.7-1.8,1.1-3.2,1.1c-1.1,0-2.8-0.3-5.1-1c-1.4-0.4-2.7-0.6-3.6-0.6
		c-1.4,0-2.2,0.5-2.2,1.4c0.3,1.6,2.3,2.4,6,2.4c2.9,0,5.5,1.3,7.8,3.8c2.1,2.4,3.1,4.9,3.1,7.5c0,3.9-1.9,7.2-5.6,9.8
		c-3.6,2.6-7.7,3.9-12.3,3.9c-6.2,0-11-1.2-14.5-3.5C117.5,195.7,116.1,193.5,116.1,190.9z M123.5,243.6c-2-2.9-3-5.7-3-8.3
		c0-2.6,0.8-4.7,2.5-6.3c1.7-1.7,3.7-2.5,6.1-2.5c4.5,0,9.5,3,14.8,9c4.4-6.2,9.5-9.2,15.4-9.2c2.1,0,3.8,0.8,5,2.3s1.8,3.6,1.8,6
		c0,3.1-0.9,6.2-2.8,9.4c-2.1,3.5-5,6.5-8.8,9c0,3.5-1,6.7-2.9,9.6c-2.1,3.1-4.5,4.7-7.4,4.7c-2.9,0-5.5-1.5-7.6-4.5
		c-2-2.9-3-6.1-3-9.8C129.2,250.1,125.8,247,123.5,243.6z M151.3,316.8c0.9,0.9,2,1.3,3.3,1.3c1.6,0,3.1-0.2,4.5-0.7
		c3.1-1,4.6-1.5,4.6-1.5c0.4-0.1,0.9-0.2,1.6-0.2c2,0,3.7,0.5,5.3,1.4c1.9,1.3,2.9,3,2.9,5.4c0,3.5-2.1,6.2-6.4,8.3
		c-3.9,1.9-8.4,2.9-13.5,2.9c-6.2,0-11.6-2-16.1-5.9c-4.7-4-7-8.7-7-14.2c0-5.7,2.3-10.6,7-14.7c4.6-4,10-6.1,16.1-6.1
		c5.1,0,9.6,1,13.5,3.1c4.3,2.3,6.4,5.1,6.4,8.6c0,2.3-1,4.1-2.9,5.3c-1.5,1-3.3,1.5-5.3,1.5c-0.3,0-0.8-0.1-1.6-0.2
		c-1.5-0.5-3.1-1-4.6-1.5c-1.5-0.5-3-0.8-4.6-0.8c-1.2,0-2.3,0.5-3.2,1.5c-0.9,1-1.4,2.1-1.4,3.4
		C149.9,314.9,150.4,315.9,151.3,316.8z M171.7,246.9c0-6,2.2-11,6.7-15c4.3-3.9,9.6-5.9,15.6-5.9c6.1,0,11.4,2,15.8,6
		c4.5,4.1,6.8,9.1,6.7,15c0,5.8-2.3,10.7-6.9,14.7c-4.4,3.9-9.6,5.8-15.6,5.8c-6,0-11.3-1.9-15.6-5.8
		C174,257.6,171.7,252.7,171.7,246.9z M220.5,332.7c-0.8,0.3-1.8,0.4-2.8,0.4c-2.2,0-4.4-0.8-6.5-2.4c-2.1-1.6-3.7-3.6-4.9-6.1
		c-1.7,0.3-3.1,0.4-4.1,0.4c-1,0-2.4-0.1-4.1-0.4c-3.6,5.6-7.4,8.5-11.2,8.5c-1.1,0-2.1-0.2-3.1-0.5c-3-1-4.5-3.7-4.5-8.1
		c0-2.8,0.6-5.9,1.9-9.3c1.3-3.4,2.9-6.6,5-9.5c3.4-4.9,6-8.1,7.8-9.6c2.3-2,5.1-3,8.2-3c3.5,0,6.3,1,8.5,3c1.3,1.2,3.8,4.4,7.5,9.6
		c2.1,2.9,3.7,6.1,5,9.5c1.3,3.4,1.9,6.5,1.9,9.3C225,329,223.5,331.7,220.5,332.7z M222.1,244.8c0-4.8,0.7-8.8,2.2-12
		c1.8-3.9,4.6-5.9,8.3-5.9c3.1,0,5.7,1.5,7.7,4.5c1.8,2.7,2.8,5.6,2.8,9c0,0.2,0,0.6,0,1.1c0,0.5-0.1,0.9-0.1,1.2
		c0,3.2,0.8,4.9,2.4,4.9c1.5,0,2.3-1.4,2.3-4.3c0-0.3,0-0.8,0-1.5c0-0.6-0.1-1.1-0.1-1.3c0-3.2,0.8-6.2,2.5-9c2-3.2,4.4-4.9,7.5-4.9
		c4,0,7.1,2.1,9.2,6.4c1.7,3.5,2.6,7.9,2.6,13c0,14.3-7.9,21.4-23.7,21.4c-7.3,0-12.9-1.7-16.9-5.1
		C224.4,258.3,222.1,252.6,222.1,244.8z M264.7,330c-3.6,2.6-7.7,3.9-12.3,3.9c-6.2,0-11-1.2-14.5-3.5c-2.9-1.9-4.4-4.1-4.4-6.7
		c0-1.2,0.4-2.2,1.2-2.9c0.6-0.7,1.6-1.1,3-1.1c1,0,2.7,0.3,5.1,1c0.9,0.3,2,0.4,3.2,0.4c1.8,0,2.7-0.4,2.7-1.2
		c0-1.1-0.5-1.8-1.5-2.2c-0.6-0.2-1.7-0.4-3.5-0.5c-1.8-0.1-3.1-0.3-4-0.6c-2.2-0.8-4.1-2.1-5.6-4c-1.5-1.9-2.2-4.1-2.2-6.5
		c0-3.9,1.9-7.2,5.6-9.8c3.6-2.6,7.7-3.9,12.3-3.9c6.2,0,11,1.2,14.5,3.5c2.9,1.9,4.4,4.1,4.4,6.7c0,1.2-0.4,2.1-1.1,2.9
		c-0.7,0.7-1.8,1.1-3.2,1.1c-1.1,0-2.8-0.3-5.1-1c-1.4-0.4-2.7-0.6-3.6-0.6c-1.4,0-2.2,0.5-2.2,1.4c0.3,1.6,2.3,2.4,6,2.4
		c2.9,0,5.5,1.3,7.8,3.8c2.1,2.4,3.1,4.9,3.1,7.5C270.3,324,268.4,327.3,264.7,330z M265.9,199.7c-3.2-0.9-5.5-2.7-6.7-5.4
		c-1.2-2.7-1.8-7.3-1.8-13.6c0-6.5,0.7-11.2,2.2-14.2c1.3-2.8,3.5-4.6,6.6-5.4c2-0.6,5.7-0.8,11.1-0.8c5.6,0,9.7,0.5,12.3,1.5
		c2.9,1.2,4.4,3.2,4.4,6c0,2.1-1.3,3.5-3.9,4.2c-1.4,0.4-3.9,0.6-7.2,0.6c-2.6,0-3.9,0.2-3.9,0.7c0,0.4,0.8,0.9,2.4,1.4
		c2.2,0.7,3.7,1.2,4.5,1.7c1.6,1,2.4,2.3,2.4,3.9c0,1.7-0.9,3-2.7,3.8c-0.8,0.4-2.4,0.8-4.9,1.4c-1.8,0.4-2.7,0.8-2.7,1.4
		c0,0.7,1.3,1,4,1.1c3.9,0,6.4,0.2,7.6,0.4c2.7,0.6,4,1.8,4,3.7c0,3.1-1.1,5.3-3.4,6.6c-2.3,1.3-5.9,2-10.9,2
		C272.9,200.8,268.4,200.4,265.9,199.7z M276.5,247c0-6.5,0.7-11.2,2-14.3c1.3-2.8,3.4-4.7,6.3-5.6c2.1-0.6,5.7-0.9,10.9-0.9
		c15.2,0,22.8,3.6,22.8,10.7c0,3.5-2.2,6.3-6.6,8.6c4.6,3.8,7,8.1,7,12.9c0,2.7-0.7,4.7-2,6.1c-1.6,1.7-3.6,2.5-5.8,2.5
		c-2.2,0-4.6-0.8-7-2.4c-2.4-1.6-4.5-3.6-6.2-6.1c0,1.6-1,3.3-3,5.1c-2.3,2.1-5,3.2-8,3.2c-2.4,0-4.6-1.3-6.5-3.9
		C277.8,259.5,276.5,254.2,276.5,247z M321.8,327.9c-1.9,4-4.7,6-8.3,6c-3,0-5.6-1.8-7.7-5.4c-1.6-2.7-2.4-4.8-2.4-6.4
		c-0.7-0.1-1.2-0.1-1.4-0.1c-0.1,0-0.5,0-1.3,0.1c0,1.6-0.8,3.7-2.4,6.4c-2.1,3.6-4.7,5.4-7.7,5.4c-3.7,0-6.5-2-8.6-6
		c-1.9-3.8-2.9-8.7-2.9-14.9c0-5.8,1.2-10.6,3.6-14.6c2.2-3.7,4.8-5.6,7.8-5.6c2.7,0,5.1,1.3,7.2,4c1.9,2.5,2.8,5.2,2.8,8.1
		c0.9,0.1,1.4,0.1,1.5,0.1c0.1,0,0.6,0,1.4-0.1c0-2.9,1-5.7,2.9-8.1c2-2.6,4.4-4,7.1-4c2.9,0,5.4,1.9,7.6,5.6
		c2.2,3.9,3.4,8.8,3.4,14.6C324.4,319.3,323.5,324.2,321.8,327.9z M337,183.8c-3.6,2.9-8.5,4.3-14.8,4.3c0,3.4-0.9,6.2-2.8,8.6
		c-2,2.5-4.6,3.8-7.7,3.8c-2.5,0-4.8-1.3-6.8-3.9c-2.8-3.5-4.2-8.9-4.2-16c0-6.5,0.7-11.3,2.1-14.4c1.3-2.9,3.5-4.8,6.5-5.8
		c2.2-0.7,5.9-1.1,11-1.1c6.9,0,12.3,1.4,16.3,4.3c3.7,2.7,5.5,6.1,5.5,10.1C342.1,177.8,340.4,181.2,337,183.8z M421.7,106.7
		c-7,0.5-13.1-4.7-13.6-11.7c-0.5-7,4.7-13.1,11.7-13.6c7-0.5,13.1,4.7,13.6,11.7C433.9,100.1,428.7,106.2,421.7,106.7z"/>
</g>
</svg>
